<svg width="188" height="188" viewBox="0 0 188 188" fill="none" xmlns="http://www.w3.org/2000/svg">
<path d="M118.424 78.7152C117.403 75.7038 114.545 73.5601 111.176 73.5601H55.032C51.6634 73.5601 48.8562 75.7038 47.7843 78.7152L37.168 109.288V150.12C37.168 152.928 39.4648 155.225 42.272 155.225H47.376C50.1832 155.225 52.48 152.928 52.48 150.12V145.016H113.728V150.12C113.728 152.928 116.025 155.225 118.832 155.225H123.936C126.744 155.225 129.04 152.928 129.04 150.12V109.288L118.424 78.7152ZM55.032 129.704C50.7957 129.704 47.376 126.285 47.376 122.048C47.376 117.812 50.7957 114.392 55.032 114.392C59.2684 114.392 62.6881 117.812 62.6881 122.048C62.6881 126.285 59.2684 129.704 55.032 129.704ZM111.176 129.704C106.94 129.704 103.52 126.285 103.52 122.048C103.52 117.812 106.94 114.392 111.176 114.392C115.413 114.392 118.832 117.812 118.832 122.048C118.832 126.285 115.413 129.704 111.176 129.704ZM47.376 104.184L55.032 81.2162H111.176L118.832 104.184H47.376Z" fill="white"/>
<path d="M82.9536 54.6152L136.81 52.9681L145.358 52.1132L134.605 64.9361H28.7376L19.6938 52.1132L42.3477 53.9897L82.9536 54.6152Z" fill="white"/>
<ellipse cx="82.526" cy="46.5566" rx="70.526" ry="5.5566" fill="white"/>
<path d="M41.272 8.112H36.932V21.524H36.904L27.692 8.112H23.268V29H27.636V15.364H27.664L36.96 29H41.272V8.112ZM52.6326 29.392C57.2526 29.392 60.7806 26.032 60.7806 21.244C60.7806 16.4 57.2526 13.096 52.6326 13.096C48.0686 13.096 44.4846 16.4 44.4846 21.244C44.4846 26.06 48.0686 29.392 52.6326 29.392ZM52.6326 25.36C50.7846 25.36 49.0206 23.876 49.0206 21.244C49.0206 18.612 50.7846 17.128 52.6326 17.128C54.4806 17.128 56.2726 18.612 56.2726 21.244C56.2726 23.848 54.4806 25.36 52.6326 25.36ZM71.0375 29H75.6015V23.092H77.4775C83.1615 23.092 86.2975 19.676 86.2975 15.448C86.2975 10.968 82.9375 8.112 77.1975 8.112H71.0375V29ZM77.6735 19.032H75.6015V12.284H77.6455C80.0255 12.284 81.6775 13.432 81.6775 15.616C81.6775 17.8 80.0255 19.032 77.6735 19.032ZM88.9665 29H93.4465V6.516H88.9665V29ZM103.244 29.392C105.568 29.392 107.332 28.244 108.34 26.62L108.788 29H112.568V13.488H108.788L108.34 15.868C107.332 14.272 105.568 13.096 103.244 13.096C99.7443 13.096 96.3563 16.344 96.3563 21.3C96.3563 26.144 99.7443 29.392 103.244 29.392ZM104.56 25.36C102.432 25.36 100.864 23.624 100.864 21.244C100.864 18.892 102.432 17.128 104.56 17.128C106.632 17.128 108.172 18.836 108.172 21.244C108.172 23.652 106.632 25.36 104.56 25.36ZM121.546 9.904H117.234V13.488H115.022V17.184H117.206V23.036C117.206 26.9 119.418 29.336 123.534 29.336C124.626 29.336 125.326 29.224 125.97 29.084V25.332C125.466 25.416 124.99 25.472 124.57 25.472C122.834 25.472 121.546 24.716 121.546 22.756V17.184H125.69V13.488H121.546V9.904ZM142.672 20.992C142.672 15.812 139.452 13.096 135.504 13.096C131.192 13.096 127.72 16.372 127.72 21.3C127.72 26.004 130.856 29.392 136.316 29.392C138.304 29.392 140.124 28.916 141.72 27.992V24.324C140.236 25.276 138.584 25.864 136.876 25.864C134.524 25.864 132.592 24.716 132.004 22.504H142.56C142.644 22.056 142.672 21.552 142.672 20.992ZM131.92 19.816C132.34 17.856 133.796 16.624 135.476 16.624C137.128 16.624 138.388 17.8 138.416 19.816H131.92Z" fill="white"/>
<path d="M2.268 184H15.484V179.856H6.832V163.112H2.268V184ZM31.82 175.992C31.82 170.812 28.6 168.096 24.652 168.096C20.34 168.096 16.868 171.372 16.868 176.3C16.868 181.004 20.004 184.392 25.464 184.392C27.452 184.392 29.272 183.916 30.868 182.992V179.324C29.384 180.276 27.732 180.864 26.024 180.864C23.672 180.864 21.74 179.716 21.152 177.504H31.708C31.792 177.056 31.82 176.552 31.82 175.992ZM21.068 174.816C21.488 172.856 22.944 171.624 24.624 171.624C26.276 171.624 27.536 172.8 27.564 174.816H21.068ZM35.8098 184H40.2898V172.184H44.3218V168.488H40.2338V167.284C40.2338 165.8 41.0738 165.156 42.6978 165.156C43.5378 165.156 44.3218 165.324 44.8818 165.492V161.74C43.8738 161.432 42.9778 161.264 41.9138 161.264C37.9378 161.264 35.8098 164.008 35.8098 166.92V168.488H33.6818V172.184H35.8098V184ZM51.847 164.904H47.535V168.488H45.323V172.184H47.507V178.036C47.507 181.9 49.719 184.336 53.835 184.336C54.927 184.336 55.627 184.224 56.271 184.084V180.332C55.767 180.416 55.291 180.472 54.871 180.472C53.135 180.472 51.847 179.716 51.847 177.756V172.184H55.991V168.488H51.847V164.904ZM78.2357 173.276C79.9997 172.548 81.3157 171.064 81.3157 168.712C81.3157 165.604 78.8237 163.112 74.0917 163.112H66.2797V184H74.4277C79.4677 184 81.8757 181.284 81.8757 178.148C81.8757 175.824 80.5877 174.06 78.2357 173.276ZM70.8157 166.976H74.0077C75.9397 166.976 77.0037 167.984 77.0037 169.356C77.0037 170.7 75.9677 171.792 73.9237 171.792H70.8157V166.976ZM74.0917 180.136H70.8157V175.012H74.1757C76.1357 175.012 77.4237 176.02 77.4237 177.56C77.4237 179.044 76.2757 180.136 74.0917 180.136ZM99.0036 175.992C99.0036 170.812 95.7836 168.096 91.8356 168.096C87.5236 168.096 84.0516 171.372 84.0516 176.3C84.0516 181.004 87.1876 184.392 92.6476 184.392C94.6356 184.392 96.4556 183.916 98.0516 182.992V179.324C96.5676 180.276 94.9156 180.864 93.2076 180.864C90.8556 180.864 88.9236 179.716 88.3356 177.504H98.8916C98.9756 177.056 99.0036 176.552 99.0036 175.992ZM88.2516 174.816C88.6716 172.856 90.1276 171.624 91.8076 171.624C93.4596 171.624 94.7196 172.8 94.7476 174.816H88.2516ZM106.407 161.516H101.927V184H106.407V174.732C106.407 173.08 107.583 172.128 109.095 172.128C110.747 172.128 111.559 172.996 111.559 174.9V184H116.039V173.64C116.039 170.084 113.911 168.096 110.579 168.096C108.815 168.096 107.303 168.908 106.435 170H106.407V161.516ZM121.914 166.36C123.258 166.36 124.35 165.296 124.35 163.924C124.35 162.58 123.258 161.516 121.914 161.516C120.514 161.516 119.45 162.58 119.45 163.924C119.45 165.296 120.514 166.36 121.914 166.36ZM119.674 184H124.154V168.488H119.674V184ZM136.583 168.096C134.455 168.096 132.831 169.216 131.907 170.672H131.823L131.375 168.488H127.903V184H132.383V174.816C132.383 173.276 133.475 172.156 135.071 172.156C136.695 172.156 137.535 173.024 137.535 174.928V184H142.015V173.64C142.015 170.168 139.943 168.096 136.583 168.096ZM151.754 184.392C153.966 184.392 155.758 183.244 156.766 181.62L157.214 184H160.994V161.516H156.514V170.756C155.562 169.16 153.798 168.096 151.698 168.096C148.086 168.096 144.782 171.288 144.782 176.244C144.782 181.2 148.142 184.392 151.754 184.392ZM152.958 180.36C150.858 180.36 149.29 178.624 149.29 176.244C149.29 173.892 150.858 172.128 152.958 172.128C155.03 172.128 156.57 173.836 156.57 176.244C156.57 178.652 155.03 180.36 152.958 180.36Z" fill="white"/>
</svg>
