<svg width="335" height="213" viewBox="0 0 335 213" fill="none" xmlns="http://www.w3.org/2000/svg">
<path d="M106.424 120.715C105.403 117.704 102.545 115.56 99.1763 115.56H43.032C39.6634 115.56 36.8562 117.704 35.7843 120.715L25.168 151.288V192.12C25.168 194.928 27.4648 197.225 30.272 197.225H35.376C38.1832 197.225 40.48 194.928 40.48 192.12V187.016H101.728V192.12C101.728 194.928 104.025 197.225 106.832 197.225H111.936C114.744 197.225 117.04 194.928 117.04 192.12V151.288L106.424 120.715ZM43.032 171.704C38.7957 171.704 35.376 168.285 35.376 164.048C35.376 159.812 38.7957 156.392 43.032 156.392C47.2684 156.392 50.6881 159.812 50.6881 164.048C50.6881 168.285 47.2684 171.704 43.032 171.704ZM99.1763 171.704C94.94 171.704 91.5203 168.285 91.5203 164.048C91.5203 159.812 94.94 156.392 99.1763 156.392C103.413 156.392 106.832 159.812 106.832 164.048C106.832 168.285 103.413 171.704 99.1763 171.704ZM35.376 146.184L43.032 123.216H99.1763L106.832 146.184H35.376Z" fill="white"/>
<path d="M70.9536 96.6152L124.81 94.9681L133.358 94.1132L122.605 106.936H16.7376L7.69385 94.1132L30.3477 95.9897L70.9536 96.6152Z" fill="white"/>
<ellipse cx="70.526" cy="88.5566" rx="70.526" ry="5.5566" fill="white"/>
<path d="M37.3 7.4V27H33.576L23.804 15.1V27H19.324V7.4H23.076L32.82 19.3V7.4H37.3ZM57.1973 27.224C55.6106 27.224 54.1826 26.8973 52.9133 26.244C51.6626 25.572 50.6826 24.648 49.9733 23.472C49.2639 22.296 48.9093 20.9613 48.9093 19.468C48.9093 17.9747 49.2639 16.64 49.9733 15.464C50.6826 14.288 51.6626 13.3733 52.9133 12.72C54.1826 12.048 55.6106 11.712 57.1973 11.712C58.7839 11.712 60.2026 12.048 61.4533 12.72C62.7039 13.3733 63.6839 14.288 64.3933 15.464C65.1026 16.64 65.4573 17.9747 65.4573 19.468C65.4573 20.9613 65.1026 22.296 64.3933 23.472C63.6839 24.648 62.7039 25.572 61.4533 26.244C60.2026 26.8973 58.7839 27.224 57.1973 27.224ZM57.1973 23.64C58.3173 23.64 59.2319 23.2667 59.9413 22.52C60.6693 21.7547 61.0333 20.7373 61.0333 19.468C61.0333 18.1987 60.6693 17.1907 59.9413 16.444C59.2319 15.6787 58.3173 15.296 57.1973 15.296C56.0773 15.296 55.1533 15.6787 54.4253 16.444C53.6973 17.1907 53.3333 18.1987 53.3333 19.468C53.3333 20.7373 53.6973 21.7547 54.4253 22.52C55.1533 23.2667 56.0773 23.64 57.1973 23.64ZM27.808 41.4C29.544 41.4 31.0467 41.6893 32.316 42.268C33.604 42.8467 34.5933 43.668 35.284 44.732C35.9747 45.796 36.32 47.056 36.32 48.512C36.32 49.9493 35.9747 51.2093 35.284 52.292C34.5933 53.356 33.604 54.1773 32.316 54.756C31.0467 55.316 29.544 55.596 27.808 55.596H23.86V61H19.324V41.4H27.808ZM27.556 51.9C28.9187 51.9 29.9547 51.6107 30.664 51.032C31.3733 50.4347 31.728 49.5947 31.728 48.512C31.728 47.4107 31.3733 46.5707 30.664 45.992C29.9547 45.3947 28.9187 45.096 27.556 45.096H23.86V51.9H27.556ZM47.9238 40.224H52.2918V61H47.9238V40.224ZM70.8217 45.712C73.155 45.712 74.947 46.272 76.1977 47.392C77.4484 48.4933 78.0737 50.164 78.0737 52.404V61H73.9857V59.124C73.1644 60.524 71.6337 61.224 69.3937 61.224C68.2364 61.224 67.2284 61.028 66.3697 60.636C65.5297 60.244 64.8857 59.7027 64.4377 59.012C63.9897 58.3213 63.7657 57.5373 63.7657 56.66C63.7657 55.26 64.2884 54.1587 65.3337 53.356C66.3977 52.5533 68.031 52.152 70.2337 52.152H73.7057C73.7057 51.2 73.4164 50.472 72.8377 49.968C72.259 49.4453 71.391 49.184 70.2337 49.184C69.431 49.184 68.6377 49.3147 67.8537 49.576C67.0884 49.8187 66.435 50.1547 65.8937 50.584L64.3257 47.532C65.147 46.9533 66.127 46.5053 67.2657 46.188C68.423 45.8707 69.6084 45.712 70.8217 45.712ZM70.4857 58.284C71.2324 58.284 71.895 58.116 72.4737 57.78C73.0524 57.4253 73.463 56.912 73.7057 56.24V54.7H70.7097C68.9177 54.7 68.0217 55.288 68.0217 56.464C68.0217 57.024 68.2364 57.472 68.6657 57.808C69.1137 58.1253 69.7204 58.284 70.4857 58.284ZM100.143 60.272C99.7136 60.5893 99.1816 60.832 98.5469 61C97.9309 61.1493 97.2776 61.224 96.5869 61.224C94.7949 61.224 93.4043 60.7667 92.4149 59.852C91.4443 58.9373 90.9589 57.5933 90.9589 55.82V49.632H88.6349V46.272H90.9589V42.604H95.3269V46.272H99.0789V49.632H95.3269V55.764C95.3269 56.3987 95.4856 56.8933 95.8029 57.248C96.1389 57.584 96.6056 57.752 97.2029 57.752C97.8936 57.752 98.4816 57.5653 98.9669 57.192L100.143 60.272ZM125.286 53.524C125.286 53.58 125.258 53.972 125.202 54.7H113.806C114.011 55.6333 114.497 56.3707 115.262 56.912C116.027 57.4533 116.979 57.724 118.118 57.724C118.902 57.724 119.593 57.612 120.19 57.388C120.806 57.1453 121.375 56.772 121.898 56.268L124.222 58.788C122.803 60.412 120.731 61.224 118.006 61.224C116.307 61.224 114.805 60.8973 113.498 60.244C112.191 59.572 111.183 58.648 110.474 57.472C109.765 56.296 109.41 54.9613 109.41 53.468C109.41 51.9933 109.755 50.668 110.446 49.492C111.155 48.2973 112.117 47.3733 113.33 46.72C114.562 46.048 115.934 45.712 117.446 45.712C118.921 45.712 120.255 46.0293 121.45 46.664C122.645 47.2987 123.578 48.2133 124.25 49.408C124.941 50.584 125.286 51.956 125.286 53.524ZM117.474 49.016C116.485 49.016 115.654 49.296 114.982 49.856C114.31 50.416 113.899 51.1813 113.75 52.152H121.17C121.021 51.2 120.61 50.444 119.938 49.884C119.266 49.3053 118.445 49.016 117.474 49.016Z" fill="white"/>
<path d="M149.324 136.4H153.86V152.304H163.688V156H149.324V136.4ZM188.961 148.524C188.961 148.58 188.933 148.972 188.877 149.7H177.481C177.686 150.633 178.172 151.371 178.937 151.912C179.702 152.453 180.654 152.724 181.793 152.724C182.577 152.724 183.268 152.612 183.865 152.388C184.481 152.145 185.05 151.772 185.573 151.268L187.897 153.788C186.478 155.412 184.406 156.224 181.681 156.224C179.982 156.224 178.48 155.897 177.173 155.244C175.866 154.572 174.858 153.648 174.149 152.472C173.44 151.296 173.085 149.961 173.085 148.468C173.085 146.993 173.43 145.668 174.121 144.492C174.83 143.297 175.792 142.373 177.005 141.72C178.237 141.048 179.609 140.712 181.121 140.712C182.596 140.712 183.93 141.029 185.125 141.664C186.32 142.299 187.253 143.213 187.925 144.408C188.616 145.584 188.961 146.956 188.961 148.524ZM181.149 144.016C180.16 144.016 179.329 144.296 178.657 144.856C177.985 145.416 177.574 146.181 177.425 147.152H184.845C184.696 146.2 184.285 145.444 183.613 144.884C182.941 144.305 182.12 144.016 181.149 144.016ZM205.057 141.272H208.921V144.632H205.169V156H200.801V144.632H198.477V141.272H200.801V140.6C200.801 138.883 201.305 137.52 202.313 136.512C203.34 135.504 204.777 135 206.625 135C207.278 135 207.894 135.075 208.473 135.224C209.07 135.355 209.565 135.551 209.957 135.812L208.809 138.976C208.305 138.621 207.717 138.444 207.045 138.444C205.72 138.444 205.057 139.172 205.057 140.628V141.272ZM229.213 155.272C228.784 155.589 228.252 155.832 227.617 156C227.001 156.149 226.348 156.224 225.657 156.224C223.865 156.224 222.475 155.767 221.485 154.852C220.515 153.937 220.029 152.593 220.029 150.82V144.632H217.705V141.272H220.029V137.604H224.397V141.272H228.149V144.632H224.397V150.764C224.397 151.399 224.556 151.893 224.873 152.248C225.209 152.584 225.676 152.752 226.273 152.752C226.964 152.752 227.552 152.565 228.037 152.192L229.213 155.272Z" fill="white"/>
<path d="M163.716 181.808C164.836 182.163 165.713 182.76 166.348 183.6C166.983 184.421 167.3 185.439 167.3 186.652C167.3 188.369 166.628 189.695 165.284 190.628C163.959 191.543 162.017 192 159.46 192H149.324V172.4H158.9C161.289 172.4 163.119 172.857 164.388 173.772C165.676 174.687 166.32 175.928 166.32 177.496C166.32 178.448 166.087 179.297 165.62 180.044C165.172 180.791 164.537 181.379 163.716 181.808ZM153.832 175.816V180.436H158.34C159.46 180.436 160.309 180.24 160.888 179.848C161.467 179.456 161.756 178.877 161.756 178.112C161.756 177.347 161.467 176.777 160.888 176.404C160.309 176.012 159.46 175.816 158.34 175.816H153.832ZM159.124 188.584C160.319 188.584 161.215 188.388 161.812 187.996C162.428 187.604 162.736 186.997 162.736 186.176C162.736 184.552 161.532 183.74 159.124 183.74H153.832V188.584H159.124ZM193.582 184.524C193.582 184.58 193.554 184.972 193.498 185.7H182.102C182.307 186.633 182.793 187.371 183.558 187.912C184.323 188.453 185.275 188.724 186.414 188.724C187.198 188.724 187.889 188.612 188.486 188.388C189.102 188.145 189.671 187.772 190.194 187.268L192.518 189.788C191.099 191.412 189.027 192.224 186.302 192.224C184.603 192.224 183.101 191.897 181.794 191.244C180.487 190.572 179.479 189.648 178.77 188.472C178.061 187.296 177.706 185.961 177.706 184.468C177.706 182.993 178.051 181.668 178.742 180.492C179.451 179.297 180.413 178.373 181.626 177.72C182.858 177.048 184.23 176.712 185.742 176.712C187.217 176.712 188.551 177.029 189.746 177.664C190.941 178.299 191.874 179.213 192.546 180.408C193.237 181.584 193.582 182.956 193.582 184.524ZM185.77 180.016C184.781 180.016 183.95 180.296 183.278 180.856C182.606 181.416 182.195 182.181 182.046 183.152H189.466C189.317 182.2 188.906 181.444 188.234 180.884C187.562 180.305 186.741 180.016 185.77 180.016ZM214.046 176.712C215.913 176.712 217.416 177.272 218.554 178.392C219.712 179.512 220.29 181.173 220.29 183.376V192H215.922V184.048C215.922 182.853 215.661 181.967 215.138 181.388C214.616 180.791 213.86 180.492 212.87 180.492C211.769 180.492 210.892 180.837 210.238 181.528C209.585 182.2 209.258 183.208 209.258 184.552V192H204.89V171.224H209.258V178.504C209.837 177.925 210.537 177.487 211.358 177.188C212.18 176.871 213.076 176.712 214.046 176.712ZM232.65 176.936H237.018V192H232.65V176.936ZM234.834 174.836C234.031 174.836 233.378 174.603 232.874 174.136C232.37 173.669 232.118 173.091 232.118 172.4C232.118 171.709 232.37 171.131 232.874 170.664C233.378 170.197 234.031 169.964 234.834 169.964C235.636 169.964 236.29 170.188 236.794 170.636C237.298 171.084 237.55 171.644 237.55 172.316C237.55 173.044 237.298 173.651 236.794 174.136C236.29 174.603 235.636 174.836 234.834 174.836ZM258.627 176.712C260.494 176.712 261.997 177.272 263.135 178.392C264.293 179.512 264.871 181.173 264.871 183.376V192H260.503V184.048C260.503 182.853 260.242 181.967 259.719 181.388C259.197 180.791 258.441 180.492 257.451 180.492C256.35 180.492 255.473 180.837 254.819 181.528C254.166 182.2 253.839 183.208 253.839 184.552V192H249.471V176.936H253.643V178.7C254.222 178.065 254.941 177.58 255.799 177.244C256.658 176.889 257.601 176.712 258.627 176.712ZM292.739 171.224V192H288.567V190.264C287.484 191.571 285.916 192.224 283.863 192.224C282.444 192.224 281.156 191.907 279.999 191.272C278.86 190.637 277.964 189.732 277.311 188.556C276.658 187.38 276.331 186.017 276.331 184.468C276.331 182.919 276.658 181.556 277.311 180.38C277.964 179.204 278.86 178.299 279.999 177.664C281.156 177.029 282.444 176.712 283.863 176.712C285.786 176.712 287.288 177.319 288.371 178.532V171.224H292.739ZM284.619 188.64C285.72 188.64 286.635 188.267 287.363 187.52C288.091 186.755 288.455 185.737 288.455 184.468C288.455 183.199 288.091 182.191 287.363 181.444C286.635 180.679 285.72 180.296 284.619 180.296C283.499 180.296 282.575 180.679 281.847 181.444C281.119 182.191 280.755 183.199 280.755 184.468C280.755 185.737 281.119 186.755 281.847 187.52C282.575 188.267 283.499 188.64 284.619 188.64Z" fill="white"/>
</svg>
