<svg width="124" height="113" viewBox="0 0 124 113" fill="none" xmlns="http://www.w3.org/2000/svg">
<g clip-path="url(#clip0_107_3)">
<path d="M92.838 32.9005C91.9475 30.2736 89.4542 28.4035 86.5155 28.4035H37.5386C34.6 28.4035 32.1512 30.2736 31.2162 32.9005L21.9551 59.5707V95.1902C21.9551 97.6391 23.9587 99.6427 26.4075 99.6427H30.86C33.3088 99.6427 35.3124 97.6391 35.3124 95.1902V90.7378H88.7418V95.1902C88.7418 97.6391 90.7454 99.6427 93.1942 99.6427H97.6467C100.095 99.6427 102.099 97.6391 102.099 95.1902V59.5707L92.838 32.9005ZM37.5386 77.3804C33.8431 77.3804 30.86 74.3973 30.86 70.7018C30.86 67.0062 33.8431 64.0231 37.5386 64.0231C41.2342 64.0231 44.2173 67.0062 44.2173 70.7018C44.2173 74.3973 41.2342 77.3804 37.5386 77.3804ZM86.5155 77.3804C82.82 77.3804 79.8369 74.3973 79.8369 70.7018C79.8369 67.0062 82.82 64.0231 86.5155 64.0231C90.2111 64.0231 93.1942 67.0062 93.1942 70.7018C93.1942 74.3973 90.2111 77.3804 86.5155 77.3804ZM30.86 55.1182L37.5386 35.0822H86.5155L93.1942 55.1182H30.86Z" fill="white"/>
</g>
<path d="M61.8956 11.8771L108.877 10.4402L116.334 9.69449L106.953 20.8804H14.6008L6.71155 9.69449L26.4734 11.3315L61.8956 11.8771Z" fill="white"/>
<ellipse cx="61.5227" cy="4.84724" rx="61.5227" ry="4.84724" fill="white"/>
<defs>
<clipPath id="clip0_107_3">
<rect width="106.859" height="106.859" fill="white" transform="translate(8.59778 6.1413)"/>
</clipPath>
</defs>
</svg>
